<svg width="17" height="16" viewBox="0 0 17 16" fill="none" xmlns="http://www.w3.org/2000/svg">
<path d="M6.5 10.9999C6.03333 10.9999 5.63889 10.8388 5.31667 10.5166C4.99444 10.1944 4.83333 9.79992 4.83333 9.33325C4.83333 8.86659 4.99444 8.47214 5.31667 8.14992C5.63889 7.8277 6.03333 7.66659 6.5 7.66659C6.96667 7.66659 7.36111 7.8277 7.68333 8.14992C8.00556 8.47214 8.16667 8.86659 8.16667 9.33325C8.16667 9.79992 8.00556 10.1944 7.68333 10.5166C7.36111 10.8388 6.96667 10.9999 6.5 10.9999ZM3.83333 14.6666C3.46667 14.6666 3.15278 14.536 2.89167 14.2749C2.63056 14.0138 2.5 13.6999 2.5 13.3333V3.99992C2.5 3.63325 2.63056 3.31936 2.89167 3.05825C3.15278 2.79714 3.46667 2.66659 3.83333 2.66659H4.5V1.33325H5.83333V2.66659H11.1667V1.33325H12.5V2.66659H13.1667C13.5333 2.66659 13.8472 2.79714 14.1083 3.05825C14.3694 3.31936 14.5 3.63325 14.5 3.99992V13.3333C14.5 13.6999 14.3694 14.0138 14.1083 14.2749C13.8472 14.536 13.5333 14.6666 13.1667 14.6666H3.83333ZM3.83333 13.3333H13.1667V6.66659H3.83333V13.3333Z" fill="#F2FFF3"/>
</svg>
