<svg width="20" height="20" viewBox="0 0 20 20" fill="none" xmlns="http://www.w3.org/2000/svg">
<path d="M16.667 2.49967H15.8337V1.66634C15.8337 1.20801 15.4587 0.833008 15.0003 0.833008C14.542 0.833008 14.167 1.20801 14.167 1.66634V2.49967H5.83366V1.66634C5.83366 1.20801 5.45866 0.833008 5.00033 0.833008C4.54199 0.833008 4.16699 1.20801 4.16699 1.66634V2.49967H3.33366C2.41699 2.49967 1.66699 3.24967 1.66699 4.16634V17.4997C1.66699 18.4163 2.41699 19.1663 3.33366 19.1663H16.667C17.5837 19.1663 18.3337 18.4163 18.3337 17.4997V4.16634C18.3337 3.24967 17.5837 2.49967 16.667 2.49967ZM15.8337 17.4997H4.16699C3.70866 17.4997 3.33366 17.1247 3.33366 16.6663V6.66634H16.667V16.6663C16.667 17.1247 16.292 17.4997 15.8337 17.4997Z" fill="black"/>
</svg>
