<svg width="3081" height="2178" viewBox="0 0 3081 2178" fill="none" xmlns="http://www.w3.org/2000/svg">
<path d="M1550.95 410.367C1190.33 404.513 898.986 700.618 910.587 1061.04C914.21 1173.26 947.183 1278.05 1002.08 1368.05C973.057 1400.14 955.344 1442.73 955.344 1489.45C955.344 1589.41 1036.4 1670.49 1136.42 1670.49C1189.96 1670.49 1238.12 1647.22 1271.28 1610.26C1291.3 1587.91 1305.86 1560.58 1312.85 1530.32C1315.89 1517.18 1317.5 1503.5 1317.5 1489.45C1317.5 1389.46 1236.4 1308.38 1136.42 1308.38C1115.67 1308.38 1095.73 1311.85 1077.17 1318.29C1028.13 1236.81 1000.06 1141.35 1000.25 1039.31C1000.83 744.194 1241.38 502.348 1536.57 500.263C1836.76 498.141 2080.75 740.755 2080.75 1040.37C2080.75 1255.44 1955.01 1441.16 1773.01 1528.05C1726.83 1550.11 1671.42 1539.47 1637.61 1501.05C1609.06 1468.56 1588.68 1420.92 1584.29 1351.84C1737.3 1330.55 1855.06 1199.24 1855.06 1040.41V726.376H1673.58C1648.11 726.376 1627.43 747.011 1627.43 772.476C1627.43 797.941 1648.11 818.577 1673.58 818.577H1767.23V1040.41C1767.23 1165.61 1665.71 1267.11 1540.48 1267.11C1415.25 1267.11 1313.77 1165.61 1313.77 1040.41V818.65H1407.42C1432.89 818.65 1453.57 798.015 1453.57 772.513C1453.57 747.011 1432.92 726.376 1407.42 726.376H1225.94V1040.41C1225.94 1198.58 1342.72 1329.45 1494.77 1351.55C1493.31 1372.96 1491.08 1479.5 1581.62 1578.98C1582.49 1579.93 1583.34 1580.88 1584.14 1581.8C1629.7 1633.42 1702.27 1652.23 1766.39 1627.02C1822.67 1604.92 1873.36 1577.26 1907.94 1552.42C2067.1 1438.05 2170.74 1251.3 2170.74 1040.41C2170.74 695.898 1894.22 416.001 1550.95 410.403V410.367ZM1057.08 1444.7C1072.63 1417.15 1102.13 1398.53 1135.98 1398.38H1136.42C1183.59 1398.38 1222.46 1434.28 1227.03 1480.3C1227.36 1483.3 1227.51 1486.34 1227.51 1489.45C1227.51 1520.08 1212.4 1547.15 1189.19 1563.61C1174.3 1574.23 1156.07 1580.48 1136.42 1580.48C1086.1 1580.48 1045.33 1539.72 1045.33 1489.45C1045.33 1473.21 1049.58 1457.91 1057.08 1444.7Z" fill="white"/>
<path d="M1430.4 1049.05C1456.76 1049.05 1478.12 1027.69 1478.12 1001.34C1478.12 974.986 1456.76 953.625 1430.4 953.625C1404.05 953.625 1382.68 974.986 1382.68 1001.34C1382.68 1027.69 1404.05 1049.05 1430.4 1049.05Z" fill="white"/>
<path d="M1650.6 1049.05C1676.96 1049.05 1698.32 1027.69 1698.32 1001.34C1698.32 974.986 1676.96 953.625 1650.6 953.625C1624.24 953.625 1602.88 974.986 1602.88 1001.34C1602.88 1027.69 1624.24 1049.05 1650.6 1049.05Z" fill="white"/>
</svg>
