<svg width="3081" height="2179" viewBox="0 0 3081 2179" fill="none" xmlns="http://www.w3.org/2000/svg">
<path d="M1550.95 410.554C1190.33 404.697 898.986 700.939 910.587 1061.53C914.21 1173.8 947.183 1278.63 1002.08 1368.68C973.057 1400.78 955.344 1443.39 955.344 1490.13C955.344 1590.14 1036.4 1671.25 1136.42 1671.25C1189.96 1671.25 1238.12 1647.97 1271.28 1611C1291.3 1588.64 1305.86 1561.29 1312.85 1531.02C1315.89 1517.88 1317.5 1504.19 1317.5 1490.13C1317.5 1390.09 1236.4 1308.98 1136.42 1308.98C1115.67 1308.98 1095.73 1312.46 1077.17 1318.9C1028.13 1237.38 1000.06 1141.88 1000.25 1039.79C1000.83 744.535 1241.38 502.578 1536.57 500.492C1836.76 498.369 2080.75 741.094 2080.75 1040.85C2080.75 1256.01 1955.01 1441.82 1773.01 1528.75C1726.83 1550.82 1671.42 1540.17 1637.61 1501.74C1609.06 1469.23 1588.68 1421.57 1584.29 1352.46C1737.3 1331.16 1855.06 1199.79 1855.06 1040.89V726.708H1673.58C1648.11 726.708 1627.43 747.353 1627.43 772.83C1627.43 798.307 1648.11 818.952 1673.58 818.952H1767.23V1040.89C1767.23 1166.15 1665.71 1267.69 1540.48 1267.69C1415.25 1267.69 1313.77 1166.15 1313.77 1040.89V819.025H1407.42C1432.89 819.025 1453.57 798.38 1453.57 772.867C1453.57 747.353 1432.92 726.708 1407.42 726.708H1225.94V1040.89C1225.94 1199.13 1342.72 1330.06 1494.77 1352.17C1493.31 1373.59 1491.08 1480.18 1581.62 1579.71C1582.49 1580.66 1583.34 1581.61 1584.14 1582.52C1629.7 1634.17 1702.27 1652.99 1766.39 1627.77C1822.67 1605.66 1873.36 1577.99 1907.94 1553.13C2067.1 1438.7 2170.74 1251.87 2170.74 1040.89C2170.74 696.217 1894.22 416.191 1550.95 410.591V410.554ZM1057.08 1445.37C1072.63 1417.8 1102.13 1399.17 1135.98 1399.03H1136.42C1183.59 1399.03 1222.46 1434.93 1227.03 1480.98C1227.36 1483.98 1227.51 1487.02 1227.51 1490.13C1227.51 1520.77 1212.4 1547.86 1189.19 1564.33C1174.3 1574.95 1156.07 1581.21 1136.42 1581.21C1086.1 1581.21 1045.33 1540.43 1045.33 1490.13C1045.33 1473.88 1049.58 1458.58 1057.08 1445.37Z" fill="#034F62"/>
<path d="M1430.4 1049.53C1456.76 1049.53 1478.12 1028.16 1478.12 1001.79C1478.12 975.433 1456.76 954.062 1430.4 954.062C1404.05 954.062 1382.68 975.433 1382.68 1001.79C1382.68 1028.16 1404.05 1049.53 1430.4 1049.53Z" fill="#034F62"/>
<path d="M1650.6 1049.53C1676.96 1049.53 1698.32 1028.16 1698.32 1001.79C1698.32 975.433 1676.96 954.062 1650.6 954.062C1624.24 954.062 1602.88 975.433 1602.88 1001.79C1602.88 1028.16 1624.24 1049.53 1650.6 1049.53Z" fill="#034F62"/>
</svg>
