<svg width="41" height="25" viewBox="0 0 41 25" fill="none" xmlns="http://www.w3.org/2000/svg">
<g id="Switch">
<mask id="path-1-inside-1_13401_6416" fill="white">
<path d="M0.833008 12.0723C0.833008 5.44485 6.20559 0.0722656 12.833 0.0722656H28.833C35.4604 0.0722656 40.833 5.44485 40.833 12.0723C40.833 18.6997 35.4604 24.0723 28.833 24.0723H12.833C6.20559 24.0723 0.833008 18.6997 0.833008 12.0723Z"/>
</mask>
<path d="M0.833008 12.0723C0.833008 5.44485 6.20559 0.0722656 12.833 0.0722656H28.833C35.4604 0.0722656 40.833 5.44485 40.833 12.0723C40.833 18.6997 35.4604 24.0723 28.833 24.0723H12.833C6.20559 24.0723 0.833008 18.6997 0.833008 12.0723Z" fill="#F2F8FF"/>
<path d="M12.833 1.07227H28.833V-0.927734H12.833V1.07227ZM28.833 23.0723H12.833V25.0723H28.833V23.0723ZM12.833 23.0723C6.75788 23.0723 1.83301 18.1474 1.83301 12.0723H-0.166992C-0.166992 19.252 5.65331 25.0723 12.833 25.0723V23.0723ZM39.833 12.0723C39.833 18.1474 34.9081 23.0723 28.833 23.0723V25.0723C36.0127 25.0723 41.833 19.252 41.833 12.0723H39.833ZM28.833 1.07227C34.9081 1.07227 39.833 5.99713 39.833 12.0723H41.833C41.833 4.89256 36.0127 -0.927734 28.833 -0.927734V1.07227ZM12.833 -0.927734C5.65331 -0.927734 -0.166992 4.89256 -0.166992 12.0723H1.83301C1.83301 5.99713 6.75788 1.07227 12.833 1.07227V-0.927734Z" fill="#004F62" mask="url(#path-1-inside-1_13401_6416)"/>
<path id="Knob" d="M21.833 12.0723C21.833 17.0428 17.8036 21.0723 12.833 21.0723C7.86244 21.0723 3.83301 17.0428 3.83301 12.0723C3.83301 7.1017 7.86244 3.07227 12.833 3.07227C17.8036 3.07227 21.833 7.1017 21.833 12.0723Z" fill="#004F62"/>
</g>
</svg>
