<svg width="15" height="15" viewBox="0 0 15 15" fill="none" xmlns="http://www.w3.org/2000/svg">
<path d="M5 6.875H5.625V1.875C5.625 1.1875 6.1875 0.625 6.875 0.625H8.125C8.8125 0.625 9.375 1.1875 9.375 1.875V6.875H10C11.725 6.875 13.125 8.275 13.125 10V14.375H1.875V10C1.875 8.275 3.275 6.875 5 6.875ZM8.125 1.875H6.875V6.875H8.125V1.875ZM3.125 13.125H4.375V11.25C4.375 10.9062 4.65625 10.625 5 10.625C5.34375 10.625 5.625 10.9062 5.625 11.25V13.125H6.875V11.25C6.875 10.9062 7.15625 10.625 7.5 10.625C7.84375 10.625 8.125 10.9062 8.125 11.25V13.125H9.375V11.25C9.375 10.9062 9.65625 10.625 10 10.625C10.3438 10.625 10.625 10.9062 10.625 11.25V13.125H11.875V10C11.875 8.96875 11.0312 8.125 10 8.125H5C3.96875 8.125 3.125 8.96875 3.125 10V13.125Z" fill="#CC2B29"/>
</svg>
