<svg width="39" height="39" viewBox="0 0 39 39" fill="none" xmlns="http://www.w3.org/2000/svg">
<path d="M29.7374 9.27867C29.1037 8.64492 28.0799 8.64492 27.4462 9.27867L19.4999 17.2087L11.5537 9.26242C10.9199 8.62867 9.89617 8.62867 9.26242 9.26242C8.62867 9.89617 8.62867 10.9199 9.26242 11.5537L17.2087 19.4999L9.26242 27.4462C8.62867 28.0799 8.62867 29.1037 9.26242 29.7374C9.89617 30.3712 10.9199 30.3712 11.5537 29.7374L19.4999 21.7912L27.4462 29.7374C28.0799 30.3712 29.1037 30.3712 29.7374 29.7374C30.3712 29.1037 30.3712 28.0799 29.7374 27.4462L21.7912 19.4999L29.7374 11.5537C30.3549 10.9362 30.3549 9.89617 29.7374 9.27867Z" fill="#004F62"/>
</svg>
