<svg width="25" height="24" viewBox="0 0 25 24" fill="none" xmlns="http://www.w3.org/2000/svg">
<g id="contact_support">
<path id="Vector" d="M12.5 2C7.81 2 4 5.81 4 10.5C4 15.19 7.81 19 12.5 19H13V22C17.86 19.66 21 15 21 10.5C21 5.81 17.19 2 12.5 2ZM13.5 16.5H11.5V14.5H13.5V16.5ZM13.9 11.72C13.89 11.73 13.88 11.75 13.87 11.77C13.82 11.85 13.77 11.93 13.73 12.01C13.71 12.04 13.7 12.08 13.69 12.12C13.66 12.19 13.63 12.26 13.61 12.33C13.54 12.54 13.51 12.76 13.51 13.01H11.5C11.5 12.5 11.58 12.07 11.7 11.71C11.7 11.7 11.7 11.69 11.71 11.68C11.72 11.64 11.75 11.62 11.76 11.58C11.82 11.42 11.89 11.28 11.98 11.14C12.01 11.09 12.05 11.04 12.08 10.99C12.11 10.95 12.13 10.9 12.16 10.87L12.17 10.88C13.01 9.78 14.38 9.44 14.49 8.2C14.58 7.22 13.88 6.27 12.92 6.07C11.88 5.85 10.94 6.46 10.62 7.35C10.48 7.71 10.15 8 9.74 8H9.54C8.94 8 8.5 7.41 8.67 6.83C9.22 5.01 11.04 3.74 13.1 4.04C14.79 4.29 16.14 5.68 16.43 7.37C16.87 9.81 14.8 10.4 13.9 11.72Z" fill="#016C9D"/>
</g>
</svg>
