<svg width="24" height="25" viewBox="0 0 24 25" fill="none" xmlns="http://www.w3.org/2000/svg">
<g id="contact_support">
<path id="Vector" d="M11.5 23.7951V20.1951C6.49 19.9351 2.5 15.7751 2.5 10.7051C2.5 5.46508 6.76 1.20508 12 1.20508C17.24 1.20508 21.5 5.46508 21.5 10.7051C21.5 15.6551 18.06 20.6351 12.93 23.1051L11.5 23.7951ZM12 3.20508C7.86 3.20508 4.5 6.56508 4.5 10.7051C4.5 14.8451 7.86 18.2051 12 18.2051H13.5V20.5051C17.14 18.2051 19.5 14.4251 19.5 10.7051C19.5 6.56508 16.14 3.20508 12 3.20508ZM11 14.7051H13V16.7051H11V14.7051ZM13 13.2051H11C11 9.95508 14 10.2051 14 8.20508C14 7.10508 13.1 6.20508 12 6.20508C10.9 6.20508 10 7.10508 10 8.20508H8C8 5.99508 9.79 4.20508 12 4.20508C14.21 4.20508 16 5.99508 16 8.20508C16 10.7051 13 10.9551 13 13.2051Z" fill="#016C9D"/>
</g>
</svg>
