<svg width="20" height="21" viewBox="0 0 20 21" fill="none" xmlns="http://www.w3.org/2000/svg">
<g id="content_paste">
<path id="Vector" d="M15.8333 3.08268H12.35C12 2.11602 11.0833 1.41602 10 1.41602C8.91667 1.41602 8 2.11602 7.65 3.08268H4.16667C3.25 3.08268 2.5 3.83268 2.5 4.74935V18.0827C2.5 18.9993 3.25 19.7493 4.16667 19.7493H15.8333C16.75 19.7493 17.5 18.9993 17.5 18.0827V4.74935C17.5 3.83268 16.75 3.08268 15.8333 3.08268ZM10 3.08268C10.4583 3.08268 10.8333 3.45768 10.8333 3.91602C10.8333 4.37435 10.4583 4.74935 10 4.74935C9.54167 4.74935 9.16667 4.37435 9.16667 3.91602C9.16667 3.45768 9.54167 3.08268 10 3.08268ZM15.8333 18.0827H4.16667V4.74935H5.83333V7.24935H14.1667V4.74935H15.8333V18.0827Z" fill="#016C9D"/>
</g>
</svg>
