<svg width="20" height="21" viewBox="0 0 20 21" fill="none" xmlns="http://www.w3.org/2000/svg">
<path d="M5.00033 16.4759C5.00033 17.3926 5.75033 18.1426 6.66699 18.1426H13.3337C14.2503 18.1426 15.0003 17.3926 15.0003 16.4759V6.47591H5.00033V16.4759ZM7.64199 11.1342C7.31699 10.8092 7.31699 10.2842 7.64199 9.95924C7.96699 9.63424 8.49199 9.63424 8.81699 9.95924L10.0003 11.1342L11.1753 9.95924C11.5003 9.63424 12.0253 9.63424 12.3503 9.95924C12.6753 10.2842 12.6753 10.8092 12.3503 11.1342L11.1753 12.3092L12.3503 13.4842C12.6753 13.8092 12.6753 14.3342 12.3503 14.6592C12.0253 14.9842 11.5003 14.9842 11.1753 14.6592L10.0003 13.4842L8.82533 14.6592C8.50033 14.9842 7.97533 14.9842 7.65033 14.6592C7.32533 14.3342 7.32533 13.8092 7.65033 13.4842L8.82533 12.3092L7.64199 11.1342ZM15.0003 3.97591H12.917L12.3253 3.38424C12.1753 3.23424 11.9587 3.14258 11.742 3.14258H8.25866C8.04199 3.14258 7.82533 3.23424 7.67533 3.38424L7.08366 3.97591H5.00033C4.54199 3.97591 4.16699 4.35091 4.16699 4.80924C4.16699 5.26758 4.54199 5.64258 5.00033 5.64258H15.0003C15.4587 5.64258 15.8337 5.26758 15.8337 4.80924C15.8337 4.35091 15.4587 3.97591 15.0003 3.97591Z" fill="#016C9D"/>
</svg>
