<svg width="36" height="37" viewBox="0 0 36 37" fill="none" xmlns="http://www.w3.org/2000/svg">
<path d="M17.9999 13.9997C21.1583 13.9997 23.9749 15.7747 25.3499 18.583C23.9749 21.3913 21.1583 23.1663 17.9999 23.1663C14.8416 23.1663 12.0249 21.3913 10.6499 18.583C12.0249 15.7747 14.8416 13.9997 17.9999 13.9997ZM17.9999 12.333C13.8333 12.333 10.2749 14.9247 8.83325 18.583C10.2749 22.2413 13.8333 24.833 17.9999 24.833C22.1666 24.833 25.7249 22.2413 27.1666 18.583C25.7249 14.9247 22.1666 12.333 17.9999 12.333ZM17.9999 16.4997C19.1499 16.4997 20.0833 17.433 20.0833 18.583C20.0833 19.733 19.1499 20.6663 17.9999 20.6663C16.8499 20.6663 15.9166 19.733 15.9166 18.583C15.9166 17.433 16.8499 16.4997 17.9999 16.4997ZM17.9999 14.833C15.9333 14.833 14.2499 16.5163 14.2499 18.583C14.2499 20.6497 15.9333 22.333 17.9999 22.333C20.0666 22.333 21.7499 20.6497 21.7499 18.583C21.7499 16.5163 20.0666 14.833 17.9999 14.833Z" fill="#016C9D"/>
</svg>
