<svg width="17" height="16" viewBox="0 0 17 16" fill="none" xmlns="http://www.w3.org/2000/svg">
<path d="M6.5 11.0002C6.03333 11.0002 5.63889 10.8391 5.31667 10.5168C4.99444 10.1946 4.83333 9.80016 4.83333 9.3335C4.83333 8.86683 4.99444 8.47239 5.31667 8.15016C5.63889 7.82794 6.03333 7.66683 6.5 7.66683C6.96667 7.66683 7.36111 7.82794 7.68333 8.15016C8.00556 8.47239 8.16667 8.86683 8.16667 9.3335C8.16667 9.80016 8.00556 10.1946 7.68333 10.5168C7.36111 10.8391 6.96667 11.0002 6.5 11.0002ZM3.83333 14.6668C3.46667 14.6668 3.15278 14.5363 2.89167 14.2752C2.63056 14.0141 2.5 13.7002 2.5 13.3335V4.00016C2.5 3.6335 2.63056 3.31961 2.89167 3.0585C3.15278 2.79739 3.46667 2.66683 3.83333 2.66683H4.5V1.3335H5.83333V2.66683H11.1667V1.3335H12.5V2.66683H13.1667C13.5333 2.66683 13.8472 2.79739 14.1083 3.0585C14.3694 3.31961 14.5 3.6335 14.5 4.00016V13.3335C14.5 13.7002 14.3694 14.0141 14.1083 14.2752C13.8472 14.5363 13.5333 14.6668 13.1667 14.6668H3.83333ZM3.83333 13.3335H13.1667V6.66683H3.83333V13.3335Z" fill="#B3B3B3"/>
</svg>
