<svg width="18" height="19" viewBox="0 0 18 19" fill="none" xmlns="http://www.w3.org/2000/svg">
<path d="M13.125 7.25C13.125 4.97 11.28 3.125 9 3.125C6.72 3.125 4.875 4.97 4.875 7.25C4.875 9.275 6.33 10.9475 8.25 11.3V12.875H6.75V14.375H8.25V15.875H9.75V14.375H11.25V12.875H9.75V11.3C11.67 10.9475 13.125 9.275 13.125 7.25ZM6.375 7.25C6.375 5.8025 7.5525 4.625 9 4.625C10.4475 4.625 11.625 5.8025 11.625 7.25C11.625 8.6975 10.4475 9.875 9 9.875C7.5525 9.875 6.375 8.6975 6.375 7.25Z" fill="#E9655A"/>
</svg>
