<svg width="21" height="21" viewBox="0 0 21 21" fill="none" xmlns="http://www.w3.org/2000/svg">
<g clip-path="url(#clip0_27_683)">
<path d="M9.35814 10.6426H12.2415C13.0165 10.6426 13.5998 9.95091 13.4748 9.18424L13.2248 7.69258C13.0248 6.50924 11.9998 5.64258 10.7998 5.64258C9.5998 5.64258 8.5748 6.50925 8.3748 7.70091L8.1248 9.19258C7.9998 9.95091 8.58314 10.6426 9.35814 10.6426ZM10.0165 7.96758C10.0831 7.58424 10.4081 7.30924 10.7998 7.30924C11.1915 7.30924 11.5165 7.58424 11.5831 7.96758L11.7498 8.97591H9.8498L10.0165 7.96758Z" fill="#016C9D"/>
<path d="M2.18314 9.90091C2.0748 10.1176 2.03314 10.3759 2.0998 10.6342C2.23314 11.2092 2.73314 11.4926 3.3748 11.4676C3.3748 11.4676 4.61647 11.4676 4.9998 11.4676C5.69147 11.4676 6.25814 10.9842 6.25814 10.3926C6.25814 10.2759 6.23314 10.1676 6.1998 10.0592C6.19147 10.0342 6.19147 10.0176 6.20814 9.99258C6.28314 9.85924 6.3248 9.70924 6.3248 9.55091C6.3248 9.29258 6.20814 9.05091 6.02481 8.86758C5.9998 8.84258 5.9998 8.81758 6.00814 8.78425C6.06647 8.61758 6.06647 8.42591 6.01647 8.24258C5.88314 7.88424 5.55814 7.64258 5.19147 7.62591C5.16647 7.62591 5.1498 7.61758 5.13314 7.60091C4.99147 7.42591 4.73314 7.30924 4.44147 7.30924C4.19147 7.30924 3.96647 7.39258 3.81647 7.52591C3.79147 7.55091 3.76647 7.55091 3.74147 7.54258C3.6248 7.49258 3.49147 7.46758 3.35814 7.46758C2.81647 7.46758 2.3748 7.87591 2.3248 8.40091C2.3248 8.41758 2.31647 8.43424 2.2998 8.45091C2.05814 8.66758 1.91647 8.99258 1.95814 9.32591C1.98314 9.50924 2.05814 9.68425 2.16647 9.82591C2.19147 9.84258 2.19147 9.87591 2.18314 9.90091Z" fill="#016C9D"/>
<path d="M14.3331 12.0176C13.3581 11.5842 12.1581 11.2676 10.7998 11.2676C9.44147 11.2676 8.24147 11.5926 7.26647 12.0176C6.36647 12.4176 5.7998 13.3176 5.7998 14.3009V15.6426H15.7998V14.3009C15.7998 13.3176 15.2331 12.4176 14.3331 12.0176ZM7.5248 13.9759C7.5998 13.7842 7.7498 13.6259 7.93314 13.5426C8.8498 13.1342 9.81647 12.9342 10.7915 12.9342C11.7748 12.9342 12.7331 13.1426 13.6498 13.5426C13.8415 13.6259 13.9831 13.7842 14.0581 13.9759H7.5248Z" fill="#016C9D"/>
<path d="M1.81647 12.7926C1.1998 13.0592 0.799805 13.6592 0.799805 14.3342V15.6426H4.5498V14.3009C4.5498 13.6092 4.74147 12.9592 5.0748 12.3926C4.76647 12.3426 4.45814 12.3092 4.13314 12.3092C3.30814 12.3092 2.5248 12.4842 1.81647 12.7926Z" fill="#016C9D"/>
<path d="M19.7831 12.7926C19.0748 12.4842 18.2915 12.3092 17.4665 12.3092C17.1415 12.3092 16.8331 12.3426 16.5248 12.3926C16.8581 12.9592 17.0498 13.6092 17.0498 14.3009V15.6426H20.7998V14.3342C20.7998 13.6592 20.3998 13.0592 19.7831 12.7926Z" fill="#016C9D"/>
<path d="M19.1331 9.80924V9.39258C19.1331 8.47591 18.3831 7.72591 17.4665 7.72591H15.7998C15.4498 7.72591 15.2581 8.12591 15.4748 8.40091L16.0581 8.92591C15.8998 9.18424 15.7998 9.48424 15.7998 9.80924C15.7998 10.7259 16.5498 11.4759 17.4665 11.4759C18.3831 11.4759 19.1331 10.7259 19.1331 9.80924Z" fill="#016C9D"/>
</g>
<defs>
<clipPath id="clip0_27_683">
<rect width="20" height="20" fill="white" transform="translate(0.799805 0.642578)"/>
</clipPath>
</defs>
</svg>
