<svg width="20" height="21" viewBox="0 0 20 21" fill="none" xmlns="http://www.w3.org/2000/svg">
<path d="M17.0409 17.641H14.0776V13C14.0776 11.8934 14.0578 10.4687 12.5363 10.4687C10.9929 10.4687 10.7567 11.6745 10.7567 12.9195V17.6406H7.79336V8.09702H10.6382V9.40126H10.678C10.9627 8.91446 11.3741 8.514 11.8684 8.24252C12.3627 7.97104 12.9214 7.83872 13.4849 7.85964C16.4884 7.85964 17.0422 9.83529 17.0422 12.4055L17.0409 17.641ZM4.44969 6.79248C4.10957 6.79254 3.77706 6.69174 3.49422 6.50282C3.21139 6.3139 2.99094 6.04535 2.86073 5.73113C2.73051 5.41692 2.69638 5.07114 2.76268 4.73753C2.82897 4.40392 2.99271 4.09746 3.23317 3.85691C3.47363 3.61636 3.78002 3.45251 4.11359 3.3861C4.44716 3.31968 4.79293 3.35367 5.10719 3.48378C5.42144 3.61389 5.69006 3.83426 5.87907 4.11704C6.06808 4.39981 6.16901 4.73229 6.16907 5.07242C6.16911 5.29826 6.12466 5.5219 6.03828 5.73056C5.95189 5.93923 5.82527 6.12883 5.66561 6.28856C5.50595 6.44828 5.31638 6.57499 5.10775 6.66145C4.89913 6.74791 4.67552 6.79243 4.44969 6.79248ZM5.93137 17.641H2.96491V8.09702H5.93137V17.641ZM18.5183 0.600972H1.47583C1.08901 0.596607 0.716265 0.745996 0.439533 1.01631C0.162802 1.28663 0.00472088 1.65575 0 2.04258V19.1563C0.00455931 19.5434 0.162547 19.9127 0.43927 20.1833C0.715992 20.4539 1.08882 20.6036 1.47583 20.5995H18.5183C18.9061 20.6044 19.28 20.4551 19.5578 20.1845C19.8356 19.9139 19.9946 19.5441 20 19.1563V2.04134C19.9945 1.65375 19.8353 1.28421 19.5575 1.0139C19.2797 0.743587 18.9059 0.594625 18.5183 0.599737" fill="#9A8DFB"/>
</svg>
