<svg width="18" height="19" viewBox="0 0 18 19" fill="none" xmlns="http://www.w3.org/2000/svg">
<path d="M7.125 8.75C8.5725 8.75 9.75 9.9275 9.75 11.375C9.75 12.8225 8.5725 14 7.125 14C5.6775 14 4.5 12.8225 4.5 11.375C4.5 9.9275 5.6775 8.75 7.125 8.75ZM7.125 7.25C4.845 7.25 3 9.095 3 11.375C3 13.655 4.845 15.5 7.125 15.5C9.405 15.5 11.25 13.655 11.25 11.375C11.25 10.505 10.98 9.7025 10.5225 9.035L13.5 6.065V8H15V3.5H10.5V5H12.435L9.4575 7.9775C8.7975 7.52 7.995 7.25 7.125 7.25Z" fill="#3499D6"/>
</svg>
