<svg width="16" height="16" viewBox="0 0 16 16" fill="none" xmlns="http://www.w3.org/2000/svg">
<path d="M8.00004 9.66699C9.10671 9.66699 10 8.77366 10 7.66699V3.66699C10 2.56033 9.10671 1.66699 8.00004 1.66699C6.89337 1.66699 6.00004 2.56033 6.00004 3.66699V7.66699C6.00004 8.77366 6.89337 9.66699 8.00004 9.66699Z" fill="#F2F8FF"/>
<path d="M11.3334 7.66699C11.3334 9.50699 9.84004 11.0003 8.00004 11.0003C6.16004 11.0003 4.66671 9.50699 4.66671 7.66699H3.33337C3.33337 10.0203 5.07337 11.9537 7.33337 12.2803V14.3337H8.66671V12.2803C10.9267 11.9537 12.6667 10.0203 12.6667 7.66699H11.3334Z" fill="#F2F8FF"/>
</svg>
