<svg width="41" height="25" viewBox="0 0 41 25" fill="none" xmlns="http://www.w3.org/2000/svg">
<g id="Switch">
<mask id="path-1-inside-1_13401_6409" fill="white">
<path d="M0.833008 12.6426C0.833008 6.01516 6.20559 0.642578 12.833 0.642578H28.833C35.4604 0.642578 40.833 6.01516 40.833 12.6426C40.833 19.27 35.4604 24.6426 28.833 24.6426H12.833C6.20559 24.6426 0.833008 19.27 0.833008 12.6426Z"/>
</mask>
<path d="M0.833008 12.6426C0.833008 6.01516 6.20559 0.642578 12.833 0.642578H28.833C35.4604 0.642578 40.833 6.01516 40.833 12.6426C40.833 19.27 35.4604 24.6426 28.833 24.6426H12.833C6.20559 24.6426 0.833008 19.27 0.833008 12.6426Z" fill="#33C213"/>
<path d="M12.833 1.64258H28.833V-0.357422H12.833V1.64258ZM28.833 23.6426H12.833V25.6426H28.833V23.6426ZM12.833 23.6426C6.75788 23.6426 1.83301 18.7177 1.83301 12.6426H-0.166992C-0.166992 19.8223 5.65331 25.6426 12.833 25.6426V23.6426ZM39.833 12.6426C39.833 18.7177 34.9081 23.6426 28.833 23.6426V25.6426C36.0127 25.6426 41.833 19.8223 41.833 12.6426H39.833ZM28.833 1.64258C34.9081 1.64258 39.833 6.56745 39.833 12.6426H41.833C41.833 5.46288 36.0127 -0.357422 28.833 -0.357422V1.64258ZM12.833 -0.357422C5.65331 -0.357422 -0.166992 5.46288 -0.166992 12.6426H1.83301C1.83301 6.56745 6.75788 1.64258 12.833 1.64258V-0.357422Z" fill="#33C213" mask="url(#path-1-inside-1_13401_6409)"/>
<path id="Knob" d="M37.833 12.6426C37.833 17.6131 33.8036 21.6426 28.833 21.6426C23.8624 21.6426 19.833 17.6131 19.833 12.6426C19.833 7.67202 23.8624 3.64258 28.833 3.64258C33.8036 3.64258 37.833 7.67202 37.833 12.6426Z" fill="#F2FFF3"/>
</g>
</svg>
