<svg width="19" height="21" viewBox="0 0 19 21" fill="none" xmlns="http://www.w3.org/2000/svg">
<path d="M16.0547 2.85938H15.0547V1.85938C15.0547 1.30937 14.6047 0.859375 14.0547 0.859375C13.5047 0.859375 13.0547 1.30937 13.0547 1.85938V2.85938H5.05469V1.85938C5.05469 1.30937 4.60469 0.859375 4.05469 0.859375C3.50469 0.859375 3.05469 1.30937 3.05469 1.85938V2.85938H2.05469C0.944687 2.85938 0.0646875 3.75938 0.0646875 4.85938L0.0546875 18.8594C0.0546875 19.9594 0.944687 20.8594 2.05469 20.8594H16.0547C17.1547 20.8594 18.0547 19.9594 18.0547 18.8594V4.85938C18.0547 3.75938 17.1547 2.85938 16.0547 2.85938ZM15.0547 18.8594H3.05469C2.50469 18.8594 2.05469 18.4094 2.05469 17.8594V7.85938H16.0547V17.8594C16.0547 18.4094 15.6047 18.8594 15.0547 18.8594ZM5.05469 9.85938H8.05469C8.60469 9.85938 9.05469 10.3094 9.05469 10.8594V13.8594C9.05469 14.4094 8.60469 14.8594 8.05469 14.8594H5.05469C4.50469 14.8594 4.05469 14.4094 4.05469 13.8594V10.8594C4.05469 10.3094 4.50469 9.85938 5.05469 9.85938Z" fill="#F2F8FF"/>
</svg>
